# AST/ASF file generated using VICON BodyLanguage
# -----------------------------------------------
:version 1.10
:name VICON
:units
  mass 1.0
  length 0.45
  angle deg
:documentation
   .ast/.asf automatically generated from VICON data using
   VICON BodyBuilder and BodyLanguage model FoxedUp or BRILLIANT.MOD
:root
   order TX TY TZ RX RY RZ
   axis XYZ
   position 0 0 0  
   orientation 0 0 0 
:bonedata
  begin
     id 1 
     name lhipjoint
     direction 0.62366 -0.717238 0.310833 
     length 2.53602 
     axis 0 0 0  XYZ
  end
  begin
     id 2 
     name lfemur
     direction 0.34202 -0.939693 0  
     length 7.40817  
     axis 0 0 20  XYZ
    dof rx ry rz
    limits (-160.0 20.0)
           (-70.0 70.0)
           (-60.0 70.0)
  end
  begin
     id 3 
     name ltibia
     direction 0.34202 -0.939693 0   
     length 7.7045   
     axis 0 0 20   XYZ
    dof rx
    limits (-10.0 170.0)
  end
  begin
     id 4 
     name lfoot
     direction 0.0673888 -0.185149 0.980397   
     length 2.09456   
     axis -90 7.62852e-016 20   XYZ
    dof rx rz
    limits (-45.0 90.0)
           (-70.0 20.0)
  end
  begin
     id 5 
     name ltoes
     direction 1.53575e-011 -4.21994e-011 1   
     length 1.05543   
     axis -90 7.62852e-016 20   XYZ
    dof rx
    limits (-90.0 20.0)
  end
  begin
     id 6 
     name rhipjoint
     direction -0.489018 -0.800347 0.346851   
     length 2.27268  
     axis 0 0 0  XYZ 
  end
  begin
     id 7 
     name rfemur
     direction -0.34202 -0.939693 0   
     length 7.55487   
     axis 0 0 -20   XYZ
    dof rx ry rz
    limits (-160.0 20.0)
           (-70.0 70.0)
           (-70.0 60.0)
  end
  begin
     id 8 
     name rtibia
     direction -0.34202 -0.939693 0   
     length 7.78969   
     axis 0 0 -20   XYZ
    dof rx
    limits (-10.0 170.0)
 end
 begin
     id 9 
     name rfoot
     direction -0.0859318 -0.236096 0.967923   
     length 2.19143  
     axis -90 -7.62852e-016 -20   XYZ
    dof rx rz
    limits (-45.0 90.0)
           (-20.0 70.0)
  end
  begin
     id 10 
     name rtoes
     direction -1.53538e-011 -4.21989e-011 1   
     length 1.09845   
     axis -90 -7.62852e-016 -20   XYZ
    dof rx
    limits (-90.0 20.0)
  end
  begin
     id 11 
     name lowerback
     direction -0.00762546 0.998978 -0.0445553   
     length 1.98161   
     axis 0 0 0   XYZ
    dof rx ry rz
    limits (-20.0 45.0)
           (-30.0 30.0)
           (-30.0 30.0)
  end
  begin
     id 12 
     name upperback
     direction 0.0422361 0.998867 -0.0219156   
     length 1.97558   
     axis 0 0 0   XYZ
    dof rx ry rz
    limits (-20.0 45.0)
           (-30.0 30.0)
           (-30.0 30.0)
  end
  begin
     id 13 
     name thorax
     direction 0.0442465 0.999021 7.47603e-005   
     length 1.97799   
     axis 0 0 0   XYZ
    dof rx ry rz
    limits (-20.0 45.0)
           (-30.0 30.0)
           (-30.0 30.0)
  end
  begin
     id 14 
     name lowerneck
     direction 0.00312169 0.984641 0.174564   
     length 1.78995   
     axis 0 0 0   XYZ
    dof rx ry rz
    limits (-20.0 45.0)
           (-30.0 30.0)
           (-30.0 30.0)
  end
  begin
     id 15 
     name upperneck
     direction -0.0383028 0.985255 -0.166749   
     length 1.83053   
     axis 0 0 0   XYZ
    dof rx ry rz
    limits (-20.0 45.0)
           (-30.0 30.0)
           (-30.0 30.0)
  end
  begin
     id 16
     name head
     direction -0.0129546 0.997059 -0.0755386  
     length 1.84088  
     axis 0 0 0   XYZ
    dof rx ry rz
    limits (-20.0 45.0)
           (-30.0 30.0)
           (-30.0 30.0)
  end
  begin
     id 17 
     name lclavicle
     direction 0.912857 0.370519 -0.171488  
     length 3.51279  
     axis 0 0 0   XYZ
    dof ry rz
    limits (-20.0 10.0)
           (0.0 20.0)
  end
  begin
     id 18 
     name lhumerus
     direction 1 -4.48962e-011 3.64361e-027   
     length 4.95663   
     axis 180 -30 -90   XYZ
    dof rx ry rz
    limits (-60.0 90.0)
           (-90.0 90.0)
           (-90.0 90.0)
  end
  begin
     id 19
     name lradius
     direction 1 -4.48974e-011 5.97202e-027   
     length 3.38177   
     axis 180 -30 -90   XYZ
    dof rx
    limits (-10.0 170.0)
  end
  begin
     id 20
     name lwrist
     direction 1 -4.4896e-011 9.83288e-027   
     length 1.69088   
     axis -9.31221e-015 90 90   XYZ
    dof ry
    limits (-180.0 0.0)
 end
  begin
     id 21 
     name lhand
     direction 1 -4.4902e-011 1.96551e-026   
     length 0.662909   
     axis -1.25475e-014 90 90   XYZ
    dof rx rz
    limits (-90.0 90.0)
           (-45.0 45.0)
  end
  begin
     id 22 
     name lfingers
     direction 1 -4.48971e-011 3.93277e-026   
     length 0.534454   
     axis -2.50945e-014 90 90   XYZ
    dof rx
    limits (0.0 90.0)
  end
  begin
     id 23
     name lthumb
     direction 0.707107 -6.34933e-011 0.707107   
     length 0.767373   
     axis -90 45 -4.80359e-014   XYZ
    dof rx rz
    limits (-45.0 45.0)
           (-45.0 45.0)
  end
  begin
     id 24 
     name rclavicle
     direction -0.900919 0.395364 -0.178976   
     length 3.40627  
     axis 0 0 0   XYZ 
    dof ry rz
    limits (-10.0 20.0)
           (-20.0 0.0)
  end
  begin
     id 25 
     name rhumerus
     direction -1 -4.48969e-011 1.03875e-027  
     length 5.08365   
     axis 180 30 90   XYZ
    dof rx ry rz
    limits (-90.0 60.0)
           (-90.0 90.0)
           (-90.0 90.0)
  end
  begin
     id 26 
     name rradius
     direction -1 -4.48951e-011 5.02733e-027   
     length 3.35984   
     axis 180 30 90   XYZ
    dof rx
    limits (-10.0 170.0)
  end
  begin
     id 27 
     name rwrist
     direction -1 -4.49011e-011 9.82828e-027   
     length 1.67992   
     axis -9.31221e-015 -90 -90   XYZ
    dof ry
    limits (-180.0 0.0)
  end
  begin
     id 28
     name rhand
     direction -1 -4.48894e-011 1.96774e-026   
     length 0.820764   
     axis -1.25475e-014 -90 -90   XYZ
    dof rx rz
    limits (-90.0 90.0)
           (-45.0 45.0)
  end
  begin
     id 29
     name rfingers
     direction -1 -4.49095e-011 3.92833e-026   
     length 0.661721   
     axis -2.50945e-014 -90 -90   XYZ
    dof rx
    limits (0.0 90.0)
  end
  begin
     id 30
     name rthumb
     direction -0.707107 -6.34881e-011 0.707107   
     length 0.950103   
     axis -90 -45 4.80359e-014   XYZ
    dof rx rz
    limits (-45.0 45.0)
           (-45.0 45.0)
  end
:hierarchy
  begin
    root lhipjoint rhipjoint lowerback
    lhipjoint lfemur
    lfemur ltibia
    ltibia lfoot
    lfoot ltoes
    rhipjoint rfemur
    rfemur rtibia
    rtibia rfoot
    rfoot rtoes
    lowerback upperback
    upperback thorax
    thorax lowerneck lclavicle rclavicle
    lowerneck upperneck
    upperneck head
    lclavicle lhumerus
    lhumerus lradius
    lradius lwrist
    lwrist lhand lthumb
    lhand lfingers
    rclavicle rhumerus
    rhumerus rradius
    rradius rwrist
    rwrist rhand rthumb
    rhand rfingers
  end

#!OML:ASF I:\golf\golf\golf 2\Subject 1\2002-09-07\Subject1.ASF
:FULLY-SPECIFIED
:DEGREES
67
root 2.05408 18.0895 -8.63912 7.65617 -7.34367 -3.17787
lowerback -5.87686 -0.212307 -5.06036
upperback 0.851621 -0.0576157 3.49149
thorax 4.20337 -0.19519 6.51197
lowerneck -18.0463 0.991607 0.798622
upperneck 39.7095 4.06388 -6.81129
head 18.0527 0.741738 -2.51619
rclavicle -8.4235e-015 -1.66979e-014
rhumerus -27.4322 -1.44566 -82.3126
rradius 27.1598
rwrist -10.2384
rhand -24.7719 14.7626
rfingers 7.12502
rthumb 1.73183 -15.2101
lclavicle -8.4235e-015 -1.66979e-014
lhumerus -25.6582 19.1323 82.0656
lradius 24.1142
lwrist 0.897398
lhand -7.64176 34.5212
lfingers 7.12502
lthumb 18.2535 63.6848
rfemur -14.0601 -2.48062 18.0184
rtibia 25.0498
rfoot -12.4878 -8.04972
rtoes -1.26117
lfemur -9.54299 4.18076 -18.0028
ltibia 22.9113
lfoot -15.3659 3.92415
ltoes -8.29189
68
root 2.06632 18.0856 -8.63645 7.66215 -7.33701 -3.10283
lowerback -5.84837 -0.181483 -5.12396
upperback 0.909449 -0.0103771 3.43523
thorax 4.24078 -0.175256 6.49336
lowerneck -17.972 1.06268 0.906404
upperneck 39.8389 4.17062 -6.87562
head 18.1215 0.79258 -2.55102
rclavicle -2.86995e-014 7.35503e-015
rhumerus -27.401 -1.67368 -82.2902
rradius 27.1069
rwrist -9.9957
rhand -24.653 15.0435
rfingers 7.12502
rthumb 1.84665 -14.9283
lclavicle -2.86995e-014 7.35503e-015
lhumerus -25.5767 18.8511 82.1144
lradius 24.2314
lwrist 0.920191
lhand -7.43192 34.6024
lfingers 7.12502
lthumb 18.4554 63.7469
rfemur -14.1631 -2.48674 17.8912
rtibia 25.2104
rfoot -12.5328 -8.09366
rtoes -1.21402
lfemur -9.59732 4.07048 -18.1412
ltibia 22.9863
lfoot -15.4267 4.05787
ltoes -8.39266
69
root 2.08034 18.082 -8.63151 7.66577 -7.40331 -3.06932
lowerback -5.77814 -0.11405 -5.04802
upperback 0.921284 0.0758568 3.33364
thorax 4.1999 -0.127804 6.34835
lowerneck -17.787 1.14389 1.0686
upperneck 39.9529 4.28158 -6.96815
head 18.1548 0.851728 -2.60698
rclavicle 1.14301e-014 -1.09332e-014
rhumerus -27.4654 -1.96176 -82.2808
rradius 26.9987
rwrist -9.72561
rhand -24.4393 15.5542
rfingers 7.12502
rthumb 2.05309 -14.4156
lclavicle 1.14301e-014 -1.09332e-014
lhumerus -25.6117 18.4293 82.0956
lradius 24.3752
lwrist 1.06516
lhand -7.31761 34.504
lfingers 7.12502
lthumb 18.5653 63.6381
rfemur -14.2815 -2.42799 17.7979
rtibia 25.4242
rfoot -12.5375 -8.16839
rtoes -1.88148
lfemur -9.62941 3.96551 -18.2392
ltibia 23.0727
lfoot -15.5468 4.23521
ltoes -8.62749
70
root 2.09506 18.0786 -8.626 7.65308 -7.45548 -2.95955
lowerback -5.67045 -0.101485 -5.1581
upperback 0.910698 0.0971701 3.31271
thorax 4.12494 -0.116676 6.38991
lowerneck -17.6126 1.23993 1.04484
upperneck 40.0762 4.46067 -6.99527
head 18.1954 0.917814 -2.58509
rclavicle -1.11816e-015 -1.05356e-014
rhumerus -27.5597 -1.85727 -82.2322
rradius 26.9834
rwrist -9.76425
rhand -24.4157 15.8774
rfingers 7.12502
rthumb 2.07587 -14.0923
lclavicle -1.11816e-015 -1.05356e-014
lhumerus -25.7076 18.0443 82.2307
lradius 24.5628
lwrist 1.27372
lhand -7.45466 34.4585
lfingers 7.12502
lthumb 18.4335 63.6051
rfemur -14.4128 -2.47405 17.6192
rtibia 25.6859
rfoot -12.5268 -8.1478
rtoes -2.37986
lfemur -9.66049 3.84766 -18.4107
ltibia 23.1856
lfoot -15.6705 4.23175
ltoes -7.11964
71
root 2.10804 18.074 -8.62585 7.67923 -7.39419 -2.88516
lowerback -5.55581 -0.110738 -5.30975
upperback 0.922802 0.0896169 3.3413
thorax 4.07435 -0.123037 6.5059
lowerneck -17.5935 1.29352 0.981885
upperneck 40.258 4.58747 -7.00184
head 18.3074 0.956286 -2.56089
rclavicle 2.0773e-014 2.34566e-014
rhumerus -27.5721 -1.69003 -82.1818
rradius 27.0566
rwrist -9.90905
rhand -24.6298 15.8842
rfingers 7.12502
rthumb 1.86913 -14.0874
lclavicle 2.0773e-014 2.34566e-014
lhumerus -25.6396 17.7162 82.4676
lradius 24.6722
lwrist 1.43247
lhand -7.60528 34.5797
lfingers 7.12502
lthumb 18.2886 63.7399
rfemur -14.603 -2.55646 17.5128
rtibia 25.985
rfoot -12.5128 -8.2215
rtoes -2.9422
lfemur -9.77058 3.84807 -18.5236
ltibia 23.2865
lfoot -15.7377 4.05168
ltoes -6.06081
72
root 2.11902 18.0698 -8.62592 7.7034 -7.34027 -2.85502
lowerback -5.52944 -0.0674709 -5.37647
upperback 0.959445 0.15248 3.31043
thorax 4.08831 -0.0943523 6.51713
lowerneck -17.4499 1.29982 1.07539
upperneck 40.3482 4.60186 -7.08066
head 18.3296 0.968263 -2.61668
rclavicle -4.96962e-016 -3.24019e-014
rhumerus -27.6483 -1.66475 -82.2064
rradius 27.2235
rwrist -10.1168
rhand -24.9661 15.6514
rfingers 7.12502
rthumb 1.54435 -14.3227
lclavicle -4.96962e-016 -3.24019e-014
lhumerus -25.5482 17.2159 82.6399
lradius 24.7643
lwrist 1.6256
lhand -7.638 34.6493
lfingers 7.12502
lthumb 18.2571 63.8125
rfemur -14.8045 -2.57009 17.4669
rtibia 26.3223
rfoot -12.3625 -8.43237
rtoes -5.22633
lfemur -9.87493 3.97187 -18.5835
ltibia 23.3713
lfoot -15.7841 3.88478
ltoes -6.41948
73
root 2.12918 18.0654 -8.62044 7.69702 -7.41827 -2.77852
lowerback -5.69501 -0.00132138 -5.49363
upperback 1.10072 0.259816 3.25099
thorax 4.3139 -0.0550756 6.53521
lowerneck -17.3035 1.32484 1.21376
upperneck 40.3277 4.64129 -7.20907
head 18.2905 0.991923 -2.69328
rclavicle -2.95692e-015 -6.75868e-015
rhumerus -27.5743 -1.73687 -82.2262
rradius 27.2945
rwrist -10.2367
rhand -25.09 15.4807
rfingers 7.12502
rthumb 1.42461 -14.4943
lclavicle -2.95692e-015 -6.75868e-015
lhumerus -25.382 16.7019 82.7877
lradius 24.8742
lwrist 1.79451
lhand -7.55985 34.7643
lfingers 7.12502
lthumb 18.3323 63.9205
rfemur -15.0159 -2.53342 17.3418
rtibia 26.7088
rfoot -12.2239 -8.54641
rtoes -7.59975
lfemur -9.8921 4.01631 -18.7065
ltibia 23.4557
lfoot -15.9077 3.84534
ltoes -6.06317
74
root 2.139 18.0592 -8.6129 7.68489 -7.48343 -2.69093
lowerback -5.75502 0.031824 -5.6139
upperback 1.21552 0.318559 3.20113
thorax 4.45948 -0.0368884 6.55936
lowerneck -17.2653 1.37262 1.24265
upperneck 40.3779 4.72891 -7.25194
head 18.3205 1.02614 -2.70404
rclavicle 4.02539e-015 5.00937e-014
rhumerus -27.4445 -1.86571 -82.2183
rradius 27.2648
rwrist -10.2436
rhand -24.9726 15.5731
rfingers 7.12502
rthumb 1.53804 -14.4011
lclavicle 4.02539e-015 5.00937e-014
lhumerus -25.2651 16.3839 82.8571
lradius 24.9543
lwrist 1.78568
lhand -7.42192 34.7843
lfingers 7.12502
lthumb 18.465 63.928
rfemur -15.2497 -2.5176 17.2023
rtibia 27.1525
rfoot -12.3955 -8.52817
rtoes -7.25307
lfemur -9.88038 4.03834 -18.8414
ltibia 23.5117
lfoot -16.0636 3.82576
ltoes -5.59531
75
root 2.15208 18.0517 -8.6074 7.66498 -7.47481 -2.54342
lowerback -5.49943 0.0329613 -5.72383
upperback 1.15033 0.31888 3.12176
thorax 4.24614 -0.0285344 6.53284
lowerneck -17.1365 1.43416 1.22493
upperneck 40.4958 4.82119 -7.20675
head 18.3608 1.06743 -2.66655
rclavicle 1.0958e-014 -2.94201e-014
rhumerus -27.6141 -1.892 -82.2544
rradius 27.3358
rwrist -10.3029
rhand -25.0209 15.756
rfingers 7.12502
rthumb 1.49141 -14.2185
lclavicle 1.0958e-014 -2.94201e-014
lhumerus -25.4689 15.9635 82.8484
lradius 25.1277
lwrist 1.87712
lhand -7.26565 34.8271
lfingers 7.12502
lthumb 18.6153 63.9564
rfemur -15.5135 -2.64197 17.0049
rtibia 27.6571
rfoot -12.6534 -8.40053
rtoes -5.2334
lfemur -9.90012 4.19914 -19.0446
ltibia 23.5451
lfoot -16.1853 3.66386
ltoes -5.74809
76
root 2.16738 18.0457 -8.60508 7.72191 -7.48595 -2.36327
lowerback -5.15086 0.0172283 -5.88421
upperback 0.95563 0.292448 3.06171
thorax 3.84877 -0.0240949 6.55097
lowerneck -16.8991 1.50956 1.21919
upperneck 40.633 4.9591 -7.23004
head 18.3911 1.12077 -2.65579
rclavicle 2.65874e-015 9.54166e-015
rhumerus -27.9664 -1.72159 -82.2882
rradius 27.4702
rwrist -10.4578
rhand -25.0947 15.9758
rfingers 7.12502
rthumb 1.42006 -13.9993
lclavicle 2.65874e-015 9.54166e-015
lhumerus -25.885 15.5489 82.8484
lradius 25.3535
lwrist 2.08482
lhand -7.21105 34.949
lfingers 7.12502
lthumb 18.6678 64.0733
rfemur -15.9354 -2.84398 16.7727
rtibia 28.2358
rfoot -12.7684 -8.2239
rtoes -3.2368
lfemur -10.0253 4.44156 -19.3015
ltibia 23.5879
lfoot -16.2893 3.43266
ltoes -5.74533
77
root 2.1804 18.0416 -8.60309 7.80224 -7.52886 -2.28769
lowerback -5.28802 -0.0041904 -6.10564
upperback 1.06299 0.283945 3.13111
thorax 4.04025 -0.0451234 6.7556
lowerneck -16.844 1.55447 1.10915
upperneck 40.6452 5.11163 -7.3219
head 18.399 1.15272 -2.64975
rclavicle 2.36057e-015 8.34896e-015
rhumerus -27.8278 -1.5878 -82.145
rradius 27.5232
rwrist -10.4975
rhand -24.9117 16.1954
rfingers 7.12502
rthumb 1.59685 -13.7784
lclavicle 2.36057e-015 8.34896e-015
lhumerus -25.7773 15.4417 83.083
lradius 25.4412
lwrist 2.14729
lhand -7.10164 35.6383
lfingers 7.12502
lthumb 18.7731 64.7525
rfemur -16.4083 -3.01424 16.6632
rtibia 28.885
rfoot -12.8737 -8.13117
rtoes -2.82572
lfemur -10.1306 4.64039 -19.4464
ltibia 23.6057
lfoot -16.3729 3.29274
ltoes -5.90396
78
root 2.19323 18.0316 -8.59919 7.77321 -7.59243 -2.20047
lowerback -5.33582 0.0351414 -6.20421
upperback 1.23076 0.349862 3.0733
thorax 4.23289 -0.0266361 6.75937
lowerneck -16.9536 1.57431 1.08778
upperneck 40.7216 5.14362 -7.28126
head 18.4752 1.16492 -2.62445
rclavicle -1.66482e-014 1.43125e-014
rhumerus -27.6682 -1.76047 -82.0985
rradius 27.5399
rwrist -10.3874
rhand -24.746 16.3408
rfingers 7.12502
rthumb 1.75687 -13.6318
lclavicle -1.66482e-014 1.43125e-014
lhumerus -25.5148 15.0212 83.2375
lradius 25.4558
lwrist 2.26327
lhand -7.01157 36.2106
lfingers 7.12502
lthumb 18.8597 65.3163
rfemur -16.7748 -3.14393 16.5291
rtibia 29.5917
rfoot -12.9212 -8.15628
rtoes -4.63425
lfemur -10.0755 4.6901 -19.6025
ltibia 23.5808
lfoot -16.4322 3.3795
ltoes -7.06584
79
root 2.20512 18.0229 -8.59632 7.72902 -7.57849 -1.97755
lowerback -5.45345 0.076055 -6.44024
upperback 1.46345 0.434924 2.97253
thorax 4.53067 -0.00834222 6.80062
lowerneck -17.1221 1.54366 1.06783
upperneck 40.715 5.09151 -7.24153
head 18.5104 1.14434 -2.61207
rclavicle -6.60959e-015 -2.88238e-014
rhumerus -27.4195 -1.92589 -82.0797
rradius 27.5922
rwrist -10.5069
rhand -24.8104 16.4453
rfingers 7.12502
rthumb 1.69469 -13.5277
lclavicle -6.60959e-015 -2.88238e-014
lhumerus -25.14 14.3267 83.488
lradius 25.4717
lwrist 2.4525
lhand -7.30135 35.455
lfingers 7.12502
lthumb 18.581 64.5875
rfemur -17.1583 -3.22512 16.2565
rtibia 30.3338
rfoot -12.8944 -8.27847
rtoes -5.73716
lfemur -10.0337 4.63983 -19.8927
ltibia 23.553
lfoot -16.4444 3.52702
ltoes -8.67351
80
root 2.21454 18.0175 -8.5934 7.7357 -7.49109 -1.78317
lowerback -5.39154 0.0740283 -6.69908
upperback 1.48291 0.449833 2.91896
thorax 4.51349 -0.00726676 6.89309
lowerneck -16.9718 1.53275 1.07594
upperneck 40.7401 5.09191 -7.28789
head 18.4872 1.14269 -2.63643
rclavicle 1.35671e-014 2.80286e-014
rhumerus -27.479 -1.98474 -82.0339
rradius 27.678
rwrist -10.5941
rhand -24.9558 16.5938
rfingers 7.12502
rthumb 1.55429 -13.3803
lclavicle 1.35671e-014 2.80286e-014
lhumerus -25.1794 13.6993 83.6463
lradius 25.5959
lwrist 2.63156
lhand -7.43518 34.9263
lfingers 7.12502
lthumb 18.4522 64.0711
rfemur -17.5893 -3.36605 16.0468
rtibia 31.098
rfoot -12.8278 -8.41574
rtoes -6.5759
lfemur -10.0642 4.62371 -20.124
ltibia 23.5136
lfoot -16.3981 3.46199
ltoes -9.15636
